# xmcd
#
# Track frame offsets: 
#        150
#        29912
#        49630
#        76249
#        98727
#        130908
#        162350
#        188320
#        220097
#
# Disc length: 3218 seconds
#
# Revision: 0
# Processed by: cddbd v1.5.2PL0 Copyright (c) Steve Scherf et al.
# Submitted via: ExactAudioCopy v1.3
#
DISCID=6e0c9009
DTITLE=Bernie Marsden - The Rory Gallagher Sessions
DYEAR=2015
DGENRE=Blues
TTITLE0=Ghost Blues
TTITLE1=Bought And Sold
TTITLE2=Sugar Mama
TTITLE3=Walk On Hot Coals
TTITLE4=A Million Miles Away
TTITLE5=Calling Card
TTITLE6=Cradle Rock
TTITLE7=Tattooed Lady (Acoustic)
TTITLE8=Messin' With The Kid (Live)
EXTD=
EXTT0=
EXTT1=
EXTT2=
EXTT3=
EXTT4=
EXTT5=
EXTT6=
EXTT7=
EXTT8=
PLAYORDER=
